<svg width="42" height="51" viewBox="0 0 42 51" fill="none" xmlns="http://www.w3.org/2000/svg">
<path d="M32.7044 43.6164C31.9372 39.3133 29.4742 35.2532 25.7614 32.7246C23.6907 31.3147 22.061 30.6836 20.9997 30.6836C19.9386 30.6836 18.3089 31.3147 16.2382 32.7246C12.5252 35.2532 10.0619 39.3133 9.29493 43.6164C9.24034 43.9222 9.33025 44.2351 9.54032 44.4717C9.75013 44.7086 10.0589 44.8445 10.3841 44.8445H31.6153C31.9402 44.8445 32.2482 44.7078 32.4577 44.4714C32.668 44.2348 32.7588 43.9217 32.7044 43.6164Z" fill="#1D376C"/>
<path d="M39.8605 46.9226H38.5019V44.576C38.5019 37.6329 34.9762 31.0592 29.0707 26.9905L26.9074 25.5005L29.0707 24.0095C34.9759 19.9418 38.5019 13.3679 38.5019 6.42446V4.07771H39.8605C41.042 4.07771 41.9997 3.1648 41.9997 2.03897C41.9997 0.912893 41.042 0 39.8605 0H2.13976C0.958017 0 0 0.912893 0 2.03897C0 3.1648 0.958017 4.07771 2.13976 4.07771H3.49785V6.98394C3.49785 13.1009 7.07681 19.4573 13.0714 23.9871L15.0744 25.5005L13.0714 27.0139C7.07681 31.5433 3.49785 37.8991 3.49785 44.0166V46.9226H2.13976C0.958017 46.9226 0 47.8355 0 48.9613C0 50.0871 0.958017 51 2.13976 51H39.8605C41.042 51 42 50.0871 42 48.9613C42 47.8355 41.042 46.9226 39.8605 46.9226ZM6.70725 44.0166C6.70725 38.8245 9.83179 33.3642 15.0653 29.4104L17.1505 27.835C17.9027 27.2661 18.3341 26.4152 18.3341 25.5005C18.3341 24.5851 17.9022 23.7339 17.15 23.1655L15.0656 21.5906C9.83205 17.6361 6.70751 12.1757 6.70751 6.98394V5.57022C6.70751 4.74606 7.4089 4.07771 8.27407 4.07771H33.7265C34.5914 4.07771 35.2928 4.74606 35.2928 5.57022V6.42446C35.2928 12.3892 32.2643 18.0364 27.1905 21.5312L24.9346 23.0859C24.124 23.6444 23.6399 24.5471 23.6399 25.5008C23.6399 26.4542 24.124 27.3569 24.9351 27.9161L27.1908 29.4693C32.2643 32.9646 35.2928 38.6121 35.2928 44.5763V45.4303C35.2928 46.2545 34.5916 46.9231 33.7265 46.9231H8.27407C7.4089 46.9231 6.70751 46.255 6.70751 45.4303L6.70725 44.0166Z" fill="#1D376C"/>
</svg>
