<svg width="45" height="51" viewBox="0 0 45 51" fill="none" xmlns="http://www.w3.org/2000/svg">
<path d="M7.0658 18.1568H14.701C17.0574 18.1568 17.6525 19.5515 17.6525 21.3572C17.6525 22.1958 17.5122 23.138 17.3719 24.0513C17.1445 25.5623 16.9316 26.9819 17.4154 27.4967C18.2235 28.3601 19.3896 29.3605 20.6379 30.4315C23.7298 33.0881 27.3006 36.1558 27.5667 38.9038C27.7264 40.585 27.7603 42.7518 27.407 44.7526C27.1361 46.2968 26.628 47.7539 25.7716 48.8414C25.3313 49.3977 24.8184 49.8958 24.1604 50.2777C23.4975 50.6596 22.6991 50.9211 21.6976 51C21.683 51 21.6637 51 21.6492 51H8.74961C8.72542 51 8.70123 51 8.68187 50.9958C7.30772 50.9294 6.06906 50.6596 5.02877 50.1117C3.95945 49.5471 3.11754 48.6962 2.56111 47.4799C2.54659 47.4467 2.53692 47.4135 2.53208 47.3803C1.36115 42.453 0.882134 37.5422 1.44341 32.7021C2.00468 27.8412 3.61107 23.0509 6.61097 18.3934C6.69807 18.2439 6.88193 18.1609 7.0658 18.1568ZM2.29983 35.2176C11.0818 37.0068 15.8236 31.2285 23.7298 34.5535C22.5637 33.3704 21.1847 32.1832 19.8976 31.0749C18.6299 29.9873 17.4445 28.9661 16.5977 28.0695C15.8284 27.2518 16.0703 25.6453 16.3268 23.9392C16.4574 23.0675 16.5929 22.1667 16.5929 21.3614C16.5929 20.0746 16.2106 19.0742 14.701 19.0742H7.3803C4.55459 23.5448 3.03045 28.1359 2.49337 32.7934C2.3966 33.5987 2.3337 34.4082 2.29983 35.2176ZM22.3169 2.89329L22.2588 8.66328C22.2588 8.87083 22.0943 9.04517 21.8717 9.09499C20.2508 9.48934 18.8235 10.0207 17.73 10.8467C16.6655 11.652 15.901 12.7562 15.5574 14.317V16.2888C15.5574 16.542 15.3204 16.7454 15.0252 16.7454H7.3174C6.85774 16.7828 6.49001 16.6914 6.20453 16.4465C5.94325 16.2182 5.80294 15.8695 5.7981 15.3797C5.7981 15.3631 5.7981 15.3465 5.7981 15.334C5.97228 13.7151 5.5852 12.5072 4.69491 11.5649C3.78042 10.6018 2.3095 9.88369 0.349894 9.27348C0.0740965 9.18631 -0.0662213 8.92894 0.0305496 8.69233V8.68818C1.09019 6.28056 2.72562 4.74467 4.77233 3.78992C6.79484 2.84763 9.20443 2.49064 11.8463 2.42837C13.4962 2.39101 15.1558 2.36196 16.8203 2.35781C18.4848 2.35365 20.1444 2.37026 21.7992 2.42422C22.0992 2.42837 22.3266 2.64008 22.3169 2.89329ZM21.204 8.31874L21.2524 3.3167C19.7718 3.27519 18.2961 3.26274 16.8251 3.26689C15.18 3.27104 13.5301 3.3001 11.8753 3.33746C9.3883 3.39557 7.13837 3.72766 5.28037 4.59108C3.56753 5.38808 2.17886 6.65001 1.22083 8.58856C3.10787 9.21952 4.54975 9.97916 5.51746 10.9962C6.58678 12.1211 7.05128 13.5325 6.85774 15.3963C6.86258 15.6246 6.90129 15.7616 6.96419 15.8197C6.99806 15.8488 7.08515 15.8571 7.21579 15.8488C7.24482 15.8446 7.27385 15.8405 7.30289 15.8405H14.4978V14.2921C14.4978 14.2672 14.5026 14.2382 14.5075 14.2133C14.8946 12.4034 15.78 11.1207 17.0284 10.1743C18.1751 9.30254 19.5976 8.73384 21.204 8.31874ZM23.4007 2.76046L23.4443 8.30628H26.6038C27.049 8.31874 27.2764 7.9991 27.17 7.17304V3.69445C27.1603 3.39142 27.0151 3.19217 26.7442 3.08839L23.4007 2.76046ZM33.9246 4.56202C34.8391 4.56202 35.5793 5.09751 35.5793 5.76168C35.5793 6.42585 34.8391 6.96134 33.9246 6.96134C33.0101 6.96134 32.2698 6.42585 32.2698 5.76168C32.2698 5.09751 33.0101 4.56202 33.9246 4.56202ZM43.3452 4.44164C44.2597 4.44164 45 4.97713 45 5.6413C45 6.30547 44.2597 6.84096 43.3452 6.84096C42.4307 6.84096 41.6904 6.30547 41.6904 5.6413C41.6904 4.97713 42.4307 4.44164 43.3452 4.44164ZM43.1614 8.96215C44.0758 8.96215 44.8161 9.49764 44.8161 10.1618C44.8161 10.826 44.0758 11.3615 43.1614 11.3615C42.2469 11.3615 41.5066 10.826 41.5066 10.1618C41.5066 9.49764 42.2469 8.96215 43.1614 8.96215ZM38.5889 6.84096C39.5034 6.84096 40.2437 7.37644 40.2437 8.04062C40.2437 8.70479 39.5034 9.24027 38.5889 9.24027C37.6744 9.24027 36.9341 8.70479 36.9341 8.04062C36.9341 7.3806 37.6744 6.84096 38.5889 6.84096ZM43.3452 0C44.2597 0 45 0.535488 45 1.19966C45 1.86383 44.2597 2.39932 43.3452 2.39932C42.4307 2.39932 41.6904 1.86383 41.6904 1.19966C41.6904 0.535488 42.4307 0 43.3452 0ZM38.6373 2.27894C39.5518 2.27894 40.2921 2.81442 40.2921 3.47859C40.2921 4.14276 39.5518 4.67825 38.6373 4.67825C37.7228 4.67825 36.9825 4.14276 36.9825 3.47859C36.9777 2.81857 37.7228 2.27894 38.6373 2.27894ZM17.8509 14.7986C18.4122 12.8683 19.7573 11.5981 22.0217 11.1041C22.5298 14.2091 23.633 16.7039 25.1716 18.7338C26.1103 19.8712 24.5862 21.0459 23.4878 19.8462L19.9267 14.8484L17.8509 14.7986Z" fill="#1D376C"/>
</svg>
