<svg width="50" height="51" viewBox="0 0 50 51" fill="none" xmlns="http://www.w3.org/2000/svg">
<g clip-path="url(#clip0_79_145)">
<path d="M41.8179 17.1542C41.8187 12.4206 39.9339 8.12484 36.8916 5.0241C33.8524 1.92176 29.6401 -0.000697076 25 1.89606e-07C20.36 -0.000697076 16.1477 1.92176 13.1085 5.02489C10.0662 8.12484 8.18135 12.4206 8.18213 17.1542C8.18135 20.3204 9.0291 23.2936 10.5019 25.8383H10.5011C10.5026 25.8415 10.5058 25.8446 10.5073 25.8478C10.5112 25.8542 10.5137 25.8606 10.5175 25.867L10.519 25.8663C11.5913 27.8023 13.1265 29.3251 14.3223 30.7307C14.9245 31.4335 15.4406 32.1004 15.7871 32.7243C16.1359 33.3513 16.3127 33.9104 16.3244 34.4704V43.9752C16.3252 46.9077 18.6543 49.284 21.53 49.2848H22.2761C22.7844 50.2988 23.8073 51 25 51C26.1927 51 27.2156 50.2988 27.724 49.2849H28.4701C31.3458 49.2841 33.6748 46.9077 33.6756 43.9753V34.4712V34.4704C33.6873 33.9104 33.8641 33.3512 34.2129 32.7243C34.7307 31.786 35.6379 30.7611 36.6311 29.6449C37.6148 28.5314 38.6801 27.3189 39.4817 25.8662L39.4825 25.8669C39.4856 25.8621 39.488 25.8558 39.4911 25.8509C39.4935 25.8461 39.4966 25.843 39.4989 25.8382H39.4981C40.9709 23.2936 41.8187 20.3204 41.8179 17.1542ZM30.452 45.9967C29.9412 46.5161 29.2483 46.8335 28.4701 46.8343H21.5299C20.7517 46.8335 20.0588 46.5161 19.548 45.9967C19.039 45.4758 18.7276 44.7682 18.7269 43.9752V43.4447L30.4581 45.9888C30.4559 45.9911 30.4543 45.9943 30.452 45.9967ZM31.2731 43.9752C31.2731 44.15 31.2521 44.3191 31.223 44.4843L18.727 41.7744V38.4351L31.2731 41.156V43.9752ZM31.2731 39.4849L18.727 36.7638V35.6701H31.2731V39.4849ZM37.4163 24.6177L37.4062 24.6345L37.3999 24.6457C36.5693 26.1804 35.1616 27.6188 33.8688 29.1185C33.2235 29.8731 32.6072 30.6486 32.1239 31.5125C31.8307 32.0391 31.5976 32.6118 31.4467 33.2188H18.5533C18.4023 32.611 18.1693 32.0391 17.8752 31.5125C17.1494 30.2194 16.1304 29.1138 15.1513 28.0017C14.1689 26.896 13.2242 25.7944 12.6001 24.6457L12.5923 24.6329L12.5836 24.6178C11.3136 22.4304 10.5854 19.8849 10.5846 17.1542C10.5854 13.0899 12.1965 9.42195 14.807 6.7576C17.4193 4.09395 21.0153 2.45139 25 2.45059C28.9848 2.45139 32.5808 4.09395 35.1929 6.7575C37.8034 9.42185 39.4146 13.0898 39.4153 17.1541C39.4146 19.8848 38.6864 22.4303 37.4163 24.6177Z" fill="#1D376C"/>
</g>
<defs>
<clipPath id="clip0_79_145">
<rect width="50" height="51" fill="white"/>
</clipPath>
</defs>
</svg>
