<svg width="52" height="40" viewBox="0 0 52 40" fill="none" xmlns="http://www.w3.org/2000/svg">
<path d="M47.1226 5.30823C46.1923 5.04519 45.2056 4.98044 44.2194 5.16913C41.5639 5.68414 39.5915 7.80224 39.2969 10.3224C39.2894 10.3406 39.2747 10.3443 39.271 10.3646C38.8495 13.1577 34.6204 15.2271 32.9467 16.5992C31.2711 17.9675 28.5522 20.447 27.3037 21.7186C27.2261 21.7952 27.0581 21.9192 26.8145 22.0831L0.132746 17.9775L21.4253 24.7743C21.4253 24.7743 21.6207 24.8379 21.961 24.9485C14.3472 29.2617 1.35379 36.2248 1.35379 36.2248C1.35379 36.2248 27.5099 27.6687 28.4179 27.3711C32.2147 28.9694 37.0549 30.6743 37.2298 34.5565C37.2333 34.5694 37.248 34.5676 37.2553 34.5797C37.377 37.5423 40.1193 39.9367 43.5122 39.9574C46.9933 39.9787 49.8427 37.4945 49.8614 34.425C49.873 32.5375 48.577 30.766 47.258 29.1725C45.6375 28.762 44.922 28.8238 43.5803 28.8156C42.7019 28.8102 41.8681 28.9652 41.1074 29.2462C39.2225 29.7052 30.0048 25.175 29.4476 24.3152C32.102 20.0516 38.8754 14.6173 42.3226 15.9674C42.3246 15.9619 42.3247 15.9472 42.3264 15.9398C43.5722 16.5963 45.0027 16.8312 46.4269 16.553C49.2977 15.9969 51.3933 13.5745 51.4103 10.7937C51.4125 10.4279 51.3797 10.0602 51.3085 9.7012C51.0573 8.40563 50.3474 7.28009 49.3195 6.44302C49.4515 5.87953 49.721 5.11099 50.2665 4.5686C52.3736 2.6295 50.8614 0.76192 50.2924 0.332031C49.7527 -0.0775339 49.2621 4.36917 47.1226 5.30823ZM47.9572 34.4132C47.9449 36.4341 45.9572 38.067 43.5256 38.0521C41.0939 38.0372 39.1228 36.3801 39.1351 34.3593C39.1392 33.6911 39.3782 33.0715 39.7564 32.5332C39.8454 32.4225 39.9306 32.3119 40.0158 32.2003C40.8263 31.2974 42.1112 30.7087 43.5687 30.7176C46.0021 30.7325 47.9696 32.3914 47.9572 34.4132ZM27.4602 24.9865C27.4561 25.6528 26.9106 26.1908 26.2443 26.1867C25.578 26.1826 25.0391 25.638 25.0432 24.9717C25.0473 24.3055 25.5928 23.7665 26.2591 23.7706C26.9254 23.7747 27.4643 24.3176 27.4602 24.9865ZM47.7317 7.60961C48.6361 8.18132 49.241 9.05626 49.4371 10.0645C49.4834 10.3001 49.5058 10.5428 49.5043 10.7819C49.4929 12.6603 48.0437 14.2983 46.0637 14.6831C44.9558 14.897 43.8358 14.6953 42.9148 14.1126C42.0123 13.5391 41.4055 12.6679 41.2113 11.6576C41.165 11.4202 41.1407 11.1793 41.1421 10.9403C41.1536 9.06175 42.6028 7.42195 44.583 7.03707C45.6907 6.82332 46.8087 7.02849 47.7317 7.60961Z" fill="#1D376C"/>
</svg>
