<svg width="92" height="92" viewBox="0 0 92 92" fill="none" xmlns="http://www.w3.org/2000/svg">
<g clip-path="url(#clip0_86_928)">
<path d="M46 91.12C70.9191 91.12 91.12 70.9191 91.12 46C91.12 21.0809 70.9191 0.880005 46 0.880005C21.0809 0.880005 0.880005 21.0809 0.880005 46C0.880005 70.9191 21.0809 91.12 46 91.12Z" fill="white"/>
<path d="M31.434 56.5876H18.9994V70.5855H31.434V56.5876Z" fill="#E6E9EE"/>
<path d="M25.3233 56.8718C27.8348 56.8718 29.8708 54.804 29.8708 52.2532C29.8708 49.7025 27.8348 47.6346 25.3233 47.6346C22.8118 47.6346 20.7758 49.7025 20.7758 52.2532C20.7758 54.804 22.8118 56.8718 25.3233 56.8718Z" fill="#F59323"/>
<path d="M27.2418 56.8718H23.4048L24.1864 59.1456H26.5312L27.2418 56.8718Z" fill="#F1543F"/>
<path d="M22.1969 72.8592C23.1917 73.0013 24.2575 73.0724 25.3233 73.0724C26.3892 73.0724 27.455 73.0013 28.4498 72.8592L26.5313 59.0745H24.1864L22.1969 72.8592Z" fill="#1D376C"/>
<path d="M42.0213 64.6168L39.6765 57.4402L30.7235 53.1059C30.7235 56.2323 30.5104 63.9062 26.8155 73.0724C33.0683 72.646 38.6107 69.3775 42.0213 64.6168Z" fill="#1D376C"/>
<path d="M23.8312 73.0724C20.1363 63.9063 19.9231 56.1613 19.9231 53.1059L10.8991 57.4403L8.55432 64.6168C12.1071 69.3775 17.5783 72.6461 23.8312 73.0724Z" fill="#1D376C"/>
<path d="M29.7998 51.3295C29.7998 51.3295 30.3682 54.527 25.3233 56.9429C25.3233 56.9429 29.0892 57.2271 30.1551 60.7798C30.2261 60.8509 32.2867 53.1769 29.7998 51.3295Z" fill="white"/>
<path d="M20.8469 51.3295C20.8469 51.3295 20.2784 54.527 25.3233 56.9429C25.3233 56.9429 21.5574 57.2271 20.4916 60.7798C20.4205 60.8509 18.431 53.1769 20.8469 51.3295Z" fill="white"/>
<path d="M32.7841 42.7318C32.7841 47.6346 29.4445 53.6743 25.3233 53.6743C21.2021 53.6743 17.8625 47.6346 17.8625 42.7318C17.8625 37.829 21.2021 35.9106 25.3233 35.9106C29.4445 35.9816 32.7841 37.9001 32.7841 42.7318Z" fill="#F59323"/>
<path d="M22.7653 34.9158C22.7653 34.9158 28.805 32.4999 31.8604 37.9711C35.1289 43.7976 31.0077 50.1215 30.155 50.6189C30.155 50.6189 30.3682 49.6242 31.0077 47.7057C31.0077 47.7057 32.4999 43.3713 28.0234 42.7318C28.0234 42.7318 23.7601 42.1634 23.4048 41.2397C23.4048 41.2397 23.689 42.8029 25.6786 43.0871C25.6786 43.0871 21.2731 43.016 19.9231 41.4528C19.9231 41.4528 18.0757 47.6346 20.7758 51.0453C20.7758 51.0453 16.0151 47.2793 16.5835 41.3818C16.5835 41.3818 16.3703 33.3525 22.7653 34.9158Z" fill="#1D376C"/>
<path d="M71.296 37.1185C71.296 37.4738 71.1539 37.9001 70.9408 38.1843C69.8749 37.6159 68.5959 37.3317 67.2459 37.3317C65.8958 37.3317 64.6168 37.6159 63.551 38.1843C63.3379 37.829 63.1957 37.4738 63.1957 37.1185C63.1957 35.6263 64.9721 34.4184 67.2459 34.4184C69.5197 34.4184 71.296 35.6263 71.296 37.1185Z" fill="#2B3B4E"/>
<path d="M74.1382 44.9345C74.1382 45.8582 74.0671 46.853 73.854 47.8478C73.6408 47.7057 73.4276 47.7057 73.1434 47.7767C73.2855 45.2898 71.7934 44.9345 71.7934 44.9345C70.2301 44.3661 69.5906 42.8739 69.3775 41.737C68.738 42.4476 67.6722 43.2292 65.8958 43.9398C61.064 45.9293 61.2772 47.7767 61.2772 47.7767L61.2061 47.7057C60.993 47.6346 60.7088 47.6346 60.4956 47.7057C60.2824 46.7109 60.2114 45.7161 60.2114 44.7924C60.2114 39.3212 63.3378 37.1895 67.1037 37.1895C71.0117 37.3316 74.1382 39.4633 74.1382 44.9345Z" fill="#1D376C"/>
<path d="M71.7223 53.9585C71.7223 53.9585 72.2908 57.085 67.3169 59.5719H67.2458C62.2009 57.156 62.8404 53.9585 62.8404 53.9585C62.9115 53.6033 62.9825 53.3191 63.1246 53.0348C64.1905 54.9533 65.6826 56.3034 67.3169 56.3034C68.9512 56.3034 70.3723 54.9533 71.5092 52.9638C71.5092 53.3191 71.6513 53.6743 71.7223 53.9585Z" fill="#F59323"/>
<path d="M83.3043 65.2563C79.1831 69.3775 73.4987 71.9355 67.2458 71.9355C60.993 71.9355 55.3086 69.3775 51.1874 65.2563L52.8216 60.1404L62.9115 55.2376C63.1957 56.3745 64.1905 58.0798 67.2458 59.5719H67.3169C70.3012 58.0798 71.296 56.3745 71.6513 55.2376L81.67 60.0693L83.3043 65.2563Z" fill="#1D376C"/>
<path d="M73.925 47.9188C73.7118 47.7767 73.4987 47.7767 73.2145 47.8478C73.3566 45.3609 71.8644 45.0056 71.8644 45.0056C70.3012 44.4371 69.6617 42.945 69.4485 41.8081C68.809 42.5187 67.7432 43.3003 65.9668 44.0108C61.1351 46.0004 61.3482 47.8478 61.3482 47.8478L61.2772 47.7767C60.993 47.7057 60.7798 47.7057 60.5666 47.8478C60.0693 48.2031 60.0693 49.2689 60.4956 50.1216C60.9219 50.9742 61.6325 51.4005 62.1298 51.1163C63.2667 54.0296 65.1142 56.3034 67.1748 56.3034C69.2354 56.3034 71.0828 54.0296 72.2197 51.1163C72.7171 51.4005 73.4276 50.9742 73.854 50.1216C74.4224 49.2689 74.3513 48.2741 73.925 47.9188Z" fill="#F59323"/>
<path d="M58.435 12.3913H38.5395C37.1895 12.3913 36.0526 13.4571 36.0526 14.8782V27.1708C36.0526 28.5208 37.1184 29.6577 38.5395 29.6577H50.761L59.1455 37.1895L56.4454 29.6577H58.435C59.785 29.6577 60.9219 28.5919 60.9219 27.1708V14.8782C60.8509 13.5282 59.785 12.3913 58.435 12.3913Z" fill="#E6E9EE"/>
<path d="M33.5657 8.69641H53.4612C54.8112 8.69641 55.9481 9.76224 55.9481 11.1833V23.4759C55.9481 24.8259 54.8823 25.9628 53.4612 25.9628H41.2397L32.8552 33.4236L35.5553 25.8918H33.5657C32.2157 25.8918 31.0788 24.8259 31.0788 23.4048V11.1833C31.1499 9.83329 32.2157 8.69641 33.5657 8.69641Z" fill="#1D376C"/>
<path d="M71.7223 53.9585C71.7223 53.9585 72.2908 57.156 67.2458 59.5719C67.2458 59.5719 71.0118 59.8561 72.0776 63.4089C72.1487 63.551 74.1382 55.877 71.7223 53.9585Z" fill="white"/>
<path d="M62.7694 53.9585C60.2825 55.877 62.3431 63.551 62.3431 63.4089C63.48 59.9272 67.1748 59.5719 67.1748 59.5719C62.201 57.156 62.7694 53.9585 62.7694 53.9585Z" fill="white"/>
<path d="M77.4067 69.5196C77.762 67.8854 77.5489 66.5353 77.5489 66.3221L78.6857 68.8091C78.2594 69.0222 77.8331 69.3065 77.4067 69.5196Z" fill="#F1543F"/>
<path d="M57.085 69.5196C56.6586 69.3065 56.2323 69.0933 55.806 68.8091L56.9429 66.3221C56.8718 66.5353 56.7297 67.8854 57.085 69.5196Z" fill="#F1543F"/>
</g>
<defs>
<clipPath id="clip0_86_928">
<rect width="90.24" height="90.24" fill="white" transform="translate(0.880005 0.880005)"/>
</clipPath>
</defs>
</svg>
