<svg width="92" height="92" viewBox="0 0 92 92" fill="none" xmlns="http://www.w3.org/2000/svg">
<g clip-path="url(#clip0_86_889)">
<path d="M45.9999 91.1199C70.919 91.1199 91.1199 70.919 91.1199 45.9999C91.1199 21.0808 70.919 0.879883 45.9999 0.879883C21.0808 0.879883 0.879883 21.0808 0.879883 45.9999C0.879883 70.919 21.0808 91.1199 45.9999 91.1199Z" fill="#1D376C"/>
<path d="M59.3579 31.6468C56.0893 34.8443 51.2576 36.8338 45.9284 36.8338C40.5993 36.8338 35.8386 34.8443 32.499 31.6468C33.0675 29.8704 34.3465 28.4493 35.9807 27.6677L41.1677 25.1808C41.3099 24.5413 42.0915 23.6176 42.1625 23.6176C41.8072 23.0491 41.452 22.4096 41.1677 21.7701C40.7414 21.7701 40.3151 21.4149 40.0309 20.9175C39.8177 20.4201 39.8177 19.8516 40.0309 19.4964C39.2493 17.2937 38.6808 14.0251 41.3809 11.5382L40.0309 11.8224C40.0309 11.8224 41.6651 8.83809 44.8626 9.90392C44.8626 9.90392 44.5784 9.40654 43.5126 9.12231C43.5126 9.12231 45.0047 8.48282 45.7863 9.47759C45.7863 9.47759 46.2837 9.05126 45.7863 8.69598C45.7863 8.69598 48.2733 8.76704 50.547 10.8987C53.5313 13.6698 52.7497 17.2937 51.755 19.7095C51.8971 20.0648 51.826 20.4911 51.6129 20.8464C51.3997 21.2727 51.0444 21.628 50.6891 21.6991C50.476 22.0543 49.8365 23.1202 49.6233 23.5465C49.6944 23.5465 50.4049 24.4702 50.6181 25.1808L55.8051 27.6677C57.5815 28.4493 58.7894 29.8704 59.3579 31.6468Z" fill="white"/>
<path d="M80.7456 65.8954C77.477 69.0928 72.6453 71.0824 67.3161 71.0824C61.987 71.0824 57.2263 69.0928 53.8867 65.8954C54.4552 64.119 55.7342 62.6979 57.3684 61.9163L62.5554 59.4293C62.6976 58.7898 63.4792 57.8661 63.5502 57.8661C63.1949 57.2977 62.8397 56.6582 62.5554 56.0187C62.1291 56.0187 61.7028 55.6634 61.4186 55.166C61.2054 54.6686 61.2054 54.1002 61.4186 53.7449C60.637 51.5422 60.0685 48.2737 62.7686 45.7868L61.4186 46.071C61.4186 46.071 63.0528 43.0867 66.2503 44.1525C66.2503 44.1525 65.9661 43.6551 64.9003 43.3709C64.9003 43.3709 66.3924 42.7314 67.174 43.7262C67.174 43.7262 67.6714 43.2998 67.174 42.9445C67.174 42.9445 69.661 43.0156 71.9347 45.1473C74.919 47.9184 74.1374 51.5422 73.1427 53.9581C73.2848 54.3134 73.2137 54.7397 73.0005 55.095C72.7874 55.5213 72.4321 55.8766 72.0768 55.9476C71.8637 56.3029 71.2242 57.3687 71.011 57.7951C71.0821 57.7951 71.7926 58.7188 72.0058 59.4293L77.1928 61.9163C78.8981 62.7689 80.1771 64.19 80.7456 65.8954Z" fill="white"/>
<path d="M39.5336 65.8954C36.2651 69.0928 31.4334 71.0824 26.1042 71.0824C20.7751 71.0824 16.0144 69.0928 12.6748 65.8954C13.2432 64.119 14.5222 62.6979 16.1565 61.9163L21.3435 59.4293C21.4856 58.7898 22.2672 57.8661 22.3383 57.8661C21.983 57.2977 21.6277 56.6582 21.3435 56.0187C20.9172 56.0187 20.4909 55.6634 20.2066 55.166C19.9935 54.6686 19.9935 54.1002 20.2066 53.7449C19.425 51.5422 18.8566 48.2737 21.5567 45.7868L20.2066 46.071C20.2066 46.071 21.8409 43.0867 25.0384 44.1525C25.0384 44.1525 24.7542 43.6551 23.6883 43.3709C23.6883 43.3709 25.1805 42.7314 25.9621 43.7262C25.9621 43.7262 26.4595 43.2998 25.9621 42.9445C25.9621 42.9445 28.449 43.0156 30.7228 45.1473C33.7071 47.9184 32.9255 51.5422 31.9307 53.9581C32.0729 54.3134 32.0018 54.7397 31.7886 55.095C31.5755 55.5213 31.2202 55.8766 30.8649 55.9476C30.6518 56.3029 30.0123 57.3687 29.7991 57.7951C29.8701 57.7951 30.5807 58.7188 30.7939 59.4293L35.9809 61.9163C37.6862 62.7689 38.9652 64.19 39.5336 65.8954Z" fill="white"/>
<path d="M53.3834 54.7795L46.9174 48.3134V41.0658C46.9174 40.4974 46.42 40 45.8516 40C45.2832 40 44.7858 40.4974 44.7858 41.0658V48.3845L38.3197 54.8505C37.8934 55.2769 37.8934 55.9163 38.3197 56.3427C38.5329 56.5558 38.8171 56.6269 39.1014 56.6269C39.3856 56.6269 39.6698 56.5558 39.883 56.3427L45.9226 50.303L51.9623 56.3427C52.3887 56.769 53.0282 56.769 53.4545 56.3427C53.8098 55.9163 53.8098 55.2058 53.3834 54.7795Z" fill="#FFA400"/>
</g>
<defs>
<clipPath id="clip0_86_889">
<rect width="90.24" height="90.24" fill="white" transform="translate(0.879883 0.879883)"/>
</clipPath>
</defs>
</svg>
