<svg width="100" height="92" viewBox="0 0 100 92" fill="none" xmlns="http://www.w3.org/2000/svg">
<ellipse cx="50" cy="46" rx="50" ry="46" fill="#F59323"/>
<path fill-rule="evenodd" clip-rule="evenodd" d="M66 28.5H30V55.5C30 56.295 30.3168 57.0585 30.8784 57.621C31.4418 58.1835 32.205 58.5 33.0006 58.5C39.7794 58.5 56.2206 58.5 62.9994 58.5C63.795 58.5 64.5582 58.1835 65.1216 57.621C65.6832 57.0585 66 56.295 66 55.5C66 47.9025 66 28.5 66 28.5Z" fill="#FABF80"/>
<path fill-rule="evenodd" clip-rule="evenodd" d="M30 28.5C30 28.5 32.3715 23.7585 33.6705 21.159C34.179 20.142 35.2185 19.5 36.354 19.5C41.2905 19.5 54.7095 19.5 59.646 19.5C60.7815 19.5 61.821 20.142 62.3295 21.159C63.6285 23.7585 66 28.5 66 28.5" fill="#FABF80"/>
<path fill-rule="evenodd" clip-rule="evenodd" d="M59.646 18H36.354C34.65 18 33.0915 18.963 32.3295 20.487L28.6725 27.8025C28.5615 28.011 28.5 28.248 28.5 28.5V55.5C28.5 56.694 28.974 57.8385 29.8185 58.6815C30.6615 59.526 31.806 60 33 60C39.78 60 56.22 60 63 60C64.194 60 65.3385 59.526 66.1815 58.6815C67.026 57.8385 67.5 56.694 67.5 55.5C67.5 47.9025 67.5 28.5 67.5 28.5C67.5 28.248 67.4385 28.011 67.3275 27.8025L63.6705 20.487C62.9085 18.963 61.35 18 59.646 18ZM54 30V34.5C54 35.295 53.6835 36.0585 53.121 36.621C52.5585 37.1835 51.795 37.5 51 37.5C49.335 37.5 46.665 37.5 45 37.5C44.205 37.5 43.4415 37.1835 42.879 36.621C42.3165 36.0585 42 35.295 42 34.5V30H31.5V55.5C31.5 55.8975 31.6575 56.28 31.9395 56.5605C32.22 56.8425 32.6025 57 33 57H63C63.3975 57 63.78 56.8425 64.0605 56.5605C64.3425 56.28 64.5 55.8975 64.5 55.5V30H54ZM36 54H39C39.828 54 40.5 53.328 40.5 52.5C40.5 51.672 39.828 51 39 51H36C35.172 51 34.5 51.672 34.5 52.5C34.5 53.328 35.172 54 36 54ZM36 48H42C42.828 48 43.5 47.328 43.5 46.5C43.5 45.672 42.828 45 42 45H36C35.172 45 34.5 45.672 34.5 46.5C34.5 47.328 35.172 48 36 48ZM51 34.5H45V30H51V34.5ZM52.77 21L53.7705 27H63.573L60.987 21.8295C60.7335 21.321 60.2145 21 59.646 21H52.77ZM43.23 21H36.354C35.7855 21 35.2665 21.321 35.013 21.8295L32.427 27H42.2295L43.23 21ZM45.27 27L46.2705 21H49.7295L50.73 27H45.27Z" fill="#1D376C"/>
<path fill-rule="evenodd" clip-rule="evenodd" d="M77.25 47.4375H54.75V64.3125C54.75 64.8094 54.948 65.2866 55.299 65.6381C55.6511 65.9897 56.1281 66.1875 56.6254 66.1875C60.8621 66.1875 71.1379 66.1875 75.3746 66.1875C75.8719 66.1875 76.3489 65.9897 76.701 65.6381C77.052 65.2866 77.25 64.8094 77.25 64.3125C77.25 59.5641 77.25 47.4375 77.25 47.4375Z" fill="#FABF80"/>
<path fill-rule="evenodd" clip-rule="evenodd" d="M54.75 47.4375C54.75 47.4375 56.2322 44.4741 57.0441 42.8494C57.3619 42.2137 58.0116 41.8125 58.7212 41.8125C61.8066 41.8125 70.1934 41.8125 73.2788 41.8125C73.9884 41.8125 74.6381 42.2137 74.9559 42.8494C75.7678 44.4741 77.25 47.4375 77.25 47.4375" fill="#FABF80"/>
<path fill-rule="evenodd" clip-rule="evenodd" d="M73.2788 40.875H58.7212C57.6562 40.875 56.6822 41.4769 56.2059 42.4294L53.9203 47.0016C53.8509 47.1319 53.8125 47.28 53.8125 47.4375V64.3125C53.8125 65.0588 54.1087 65.7741 54.6366 66.3009C55.1634 66.8288 55.8788 67.125 56.625 67.125C60.8625 67.125 71.1375 67.125 75.375 67.125C76.1213 67.125 76.8366 66.8288 77.3634 66.3009C77.8913 65.7741 78.1875 65.0588 78.1875 64.3125C78.1875 59.5641 78.1875 47.4375 78.1875 47.4375C78.1875 47.28 78.1491 47.1319 78.0797 47.0016L75.7941 42.4294C75.3178 41.4769 74.3438 40.875 73.2788 40.875ZM69.75 48.375V51.1875C69.75 51.6844 69.5522 52.1616 69.2006 52.5131C68.8491 52.8647 68.3719 53.0625 67.875 53.0625C66.8344 53.0625 65.1656 53.0625 64.125 53.0625C63.6281 53.0625 63.1509 52.8647 62.7994 52.5131C62.4478 52.1616 62.25 51.6844 62.25 51.1875V48.375H55.6875V64.3125C55.6875 64.5609 55.7859 64.8 55.9622 64.9753C56.1375 65.1516 56.3766 65.25 56.625 65.25H75.375C75.6234 65.25 75.8625 65.1516 76.0378 64.9753C76.2141 64.8 76.3125 64.5609 76.3125 64.3125V48.375H69.75ZM58.5 63.375H60.375C60.8925 63.375 61.3125 62.955 61.3125 62.4375C61.3125 61.92 60.8925 61.5 60.375 61.5H58.5C57.9825 61.5 57.5625 61.92 57.5625 62.4375C57.5625 62.955 57.9825 63.375 58.5 63.375ZM58.5 59.625H62.25C62.7675 59.625 63.1875 59.205 63.1875 58.6875C63.1875 58.17 62.7675 57.75 62.25 57.75H58.5C57.9825 57.75 57.5625 58.17 57.5625 58.6875C57.5625 59.205 57.9825 59.625 58.5 59.625ZM67.875 51.1875H64.125V48.375H67.875V51.1875ZM68.9812 42.75L69.6066 46.5H75.7331L74.1169 43.2684C73.9584 42.9506 73.6341 42.75 73.2788 42.75H68.9812ZM63.0188 42.75H58.7212C58.3659 42.75 58.0416 42.9506 57.8831 43.2684L56.2669 46.5H62.3934L63.0188 42.75ZM64.2937 46.5L64.9191 42.75H67.0809L67.7063 46.5H64.2937Z" fill="#1D376C"/>
</svg>
