<svg width="100" height="92" viewBox="0 0 100 92" fill="none" xmlns="http://www.w3.org/2000/svg">
<ellipse cx="50" cy="46" rx="50" ry="46" fill="white"/>
<path d="M83.48 39.545C83.48 39.3755 83.4128 39.2131 83.2931 39.0931L79.256 35.056C79.136 34.936 78.9732 34.8686 78.8035 34.8686C78.6338 34.8686 78.4711 34.936 78.351 35.056L67.7616 45.6403V25.2C67.7616 24.3513 67.4245 23.5374 66.8243 22.9373C66.2242 22.3371 65.4103 22 64.5616 22H34.2C33.3513 22 32.5374 22.3371 31.9373 22.9373C31.3371 23.5374 31 24.3513 31 25.2V71.28C31 72.1287 31.3371 72.9426 31.9373 73.5427C32.5374 74.1429 33.3513 74.48 34.2 74.48H64.5616C65.4103 74.48 66.2242 74.1429 66.8243 73.5427C67.4245 72.9426 67.7616 72.1287 67.7616 71.28V55.5283L83.2931 39.9981C83.3525 39.9385 83.3996 39.8679 83.4317 39.7901C83.4637 39.7124 83.4801 39.6291 83.48 39.545Z" fill="#1D376C"/>
<path d="M59.81 53.5932C59.7558 53.6497 59.7125 53.7156 59.682 53.7878L56.866 60.2018C56.7621 60.3833 56.7195 60.5934 56.7446 60.801C56.7697 61.0086 56.8613 61.2025 57.0056 61.3538C57.0916 61.4392 57.1937 61.5067 57.306 61.5524C57.4182 61.5981 57.5384 61.6211 57.6596 61.6201C57.8192 61.62 57.9765 61.5814 58.1179 61.5074L62.8372 59.4338V69.5919H35.5732V26.8911H41.0017C41.3644 27.4826 41.8723 27.9716 42.4772 28.3115C43.0821 28.6513 43.7639 28.8308 44.4577 28.8329H54.2958C54.9896 28.8308 55.6714 28.6513 56.2763 28.3115C56.8812 27.9716 57.3892 27.4826 57.7518 26.8911H62.8206V50.5711L59.81 53.5932Z" fill="white"/>
<path d="M66.4814 71.2798C66.4814 71.789 66.2791 72.2774 65.919 72.6374C65.559 72.9975 65.0706 73.1998 64.5614 73.1998H34.1998C33.6906 73.1998 33.2022 72.9975 32.8421 72.6374C32.4821 72.2774 32.2798 71.789 32.2798 71.2798V25.1998C32.2798 24.6906 32.4821 24.2022 32.8421 23.8421C33.2022 23.4821 33.6906 23.2798 34.1998 23.2798H40.3809V24.7518C40.3816 25.0406 40.4134 25.3286 40.4756 25.6107H34.9332C34.7635 25.6107 34.6007 25.6781 34.4807 25.7981C34.3607 25.9181 34.2932 26.0809 34.2932 26.2507V70.2289C34.2932 70.3986 34.3607 70.5614 34.4807 70.6815C34.6007 70.8015 34.7635 70.8689 34.9332 70.8689H63.4683C63.638 70.8689 63.8008 70.8015 63.9208 70.6815C64.0408 70.5614 64.1083 70.3986 64.1083 70.2289V58.8638L64.5588 58.6654C64.6314 58.6351 64.6978 58.5917 64.7547 58.5374L66.4814 56.8094V71.2798Z" fill="#1D376C"/>
<path d="M48.952 36.4807H60.696C60.8658 36.4807 61.0285 36.4133 61.1486 36.2932C61.2686 36.1732 61.336 36.0104 61.336 35.8407C61.336 35.6709 61.2686 35.5082 61.1486 35.3881C61.0285 35.2681 60.8658 35.2007 60.696 35.2007H48.952C48.7823 35.2007 48.6195 35.2681 48.4995 35.3881C48.3794 35.5082 48.312 35.6709 48.312 35.8407C48.312 36.0104 48.3794 36.1732 48.4995 36.2932C48.6195 36.4133 48.7823 36.4807 48.952 36.4807Z" fill="#1D376C"/>
<path d="M43.266 34.3277L41.7953 35.7985L41.2283 35.2314C41.1692 35.1703 41.0986 35.1215 41.0205 35.088C40.9425 35.0544 40.8585 35.0368 40.7735 35.0361C40.6885 35.0353 40.6042 35.0515 40.5256 35.0837C40.4469 35.1159 40.3755 35.1634 40.3154 35.2235C40.2553 35.2836 40.2078 35.355 40.1756 35.4337C40.1434 35.5123 40.1272 35.5966 40.128 35.6816C40.1287 35.7666 40.1463 35.8506 40.1799 35.9286C40.2134 36.0067 40.2622 36.0773 40.3233 36.1364L41.3473 37.1604C41.4673 37.2804 41.6301 37.3478 41.7998 37.3478C41.9695 37.3478 42.1323 37.2804 42.2523 37.1604L44.1723 35.2404C44.2889 35.1197 44.3534 34.958 44.3519 34.7902C44.3504 34.6224 44.2831 34.4619 44.1645 34.3432C44.0458 34.2246 43.8853 34.1572 43.7175 34.1558C43.5497 34.1543 43.388 34.2188 43.2673 34.3354L43.266 34.3277Z" fill="#1D376C"/>
<path d="M42.0081 31.2607C41.1025 31.2605 40.2172 31.5288 39.4641 32.0317C38.7111 32.5345 38.124 33.2495 37.7772 34.086C37.4305 34.9225 37.3395 35.8431 37.516 36.7313C37.6924 37.6195 38.1282 38.4354 38.7683 39.0759C39.4085 39.7164 40.2242 40.1527 41.1123 40.3296C42.0004 40.5065 42.921 40.4161 43.7577 40.0698C44.5945 39.7235 45.3097 39.1369 45.813 38.3841C46.3163 37.6313 46.5851 36.7461 46.5853 35.8406C46.584 34.6268 46.1014 33.4631 45.2433 32.6045C44.3853 31.746 43.2219 31.2628 42.0081 31.2607ZM42.0081 39.1379C41.3556 39.1381 40.7176 38.9448 40.175 38.5825C39.6324 38.2201 39.2094 37.705 38.9596 37.1022C38.7097 36.4994 38.6443 35.8361 38.7715 35.1961C38.8988 34.5561 39.213 33.9683 39.6744 33.5069C40.1357 33.0455 40.7236 32.7313 41.3636 32.6041C42.0036 32.4768 42.6669 32.5423 43.2697 32.7921C43.8725 33.0419 44.3876 33.4649 44.75 34.0075C45.1123 34.5502 45.3056 35.1881 45.3053 35.8406C45.304 36.7147 44.9562 37.5525 44.3381 38.1706C43.72 38.7887 42.8821 39.1365 42.0081 39.1379Z" fill="#1D376C"/>
<path d="M60.696 47.6001H48.952C48.7823 47.6001 48.6195 47.6675 48.4995 47.7875C48.3794 47.9076 48.312 48.0704 48.312 48.2401C48.312 48.4098 48.3794 48.5726 48.4995 48.6926C48.6195 48.8127 48.7823 48.8801 48.952 48.8801H60.696C60.8658 48.8801 61.0285 48.8127 61.1486 48.6926C61.2686 48.5726 61.336 48.4098 61.336 48.2401C61.336 48.0704 61.2686 47.9076 61.1486 47.7875C61.0285 47.6675 60.8658 47.6001 60.696 47.6001Z" fill="#1D376C"/>
<path d="M43.266 46.7272L41.7953 48.1992L41.2283 47.6308C41.1692 47.5697 41.0986 47.5209 41.0205 47.4874C40.9425 47.4539 40.8585 47.4362 40.7735 47.4355C40.6885 47.4347 40.6042 47.4509 40.5256 47.4831C40.4469 47.5153 40.3755 47.5628 40.3154 47.6229C40.2553 47.683 40.2078 47.7544 40.1756 47.8331C40.1434 47.9118 40.1272 47.996 40.128 48.081C40.1287 48.166 40.1463 48.25 40.1799 48.3281C40.2134 48.4061 40.2622 48.4768 40.3233 48.5358L41.3473 49.5598C41.4673 49.6798 41.6301 49.7472 41.7998 49.7472C41.9695 49.7472 42.1323 49.6798 42.2523 49.5598L44.1723 47.6398C44.2889 47.5191 44.3534 47.3574 44.3519 47.1896C44.3504 47.0218 44.2831 46.8613 44.1645 46.7426C44.0458 46.624 43.8853 46.5567 43.7175 46.5552C43.5497 46.5537 43.388 46.6183 43.2673 46.7348L43.266 46.7272Z" fill="#1D376C"/>
<path d="M42.0078 43.6626C41.1024 43.6623 40.2173 43.9306 39.4644 44.4334C38.7115 44.9362 38.1246 45.651 37.778 46.4873C37.4314 47.3237 37.3405 48.2441 37.517 49.1321C37.6935 50.0201 38.1293 50.8358 38.7694 51.476C39.4095 52.1163 40.2251 52.5524 41.113 52.7291C42.001 52.9058 42.9214 52.8153 43.7578 52.4689C44.5943 52.1224 45.3092 51.5358 45.8123 50.783C46.3153 50.0303 46.5838 49.1452 46.5838 48.2399C46.5821 47.0266 46.0995 45.8636 45.2417 45.0056C44.3839 44.1476 43.221 43.6646 42.0078 43.6626ZM42.0078 51.5372C41.3556 51.5374 40.7179 51.3442 40.1755 50.9821C39.6331 50.6199 39.2103 50.1051 38.9606 49.5026C38.7108 48.9001 38.6453 48.2371 38.7724 47.5974C38.8995 46.9577 39.2134 46.3701 39.6745 45.9088C40.1356 45.4475 40.7231 45.1334 41.3627 45.006C42.0024 44.8787 42.6654 44.9439 43.268 45.1935C43.8706 45.443 44.3856 45.8656 44.748 46.4079C45.1103 46.9501 45.3038 47.5877 45.3038 48.2399C45.3027 49.1138 44.9552 49.9517 44.3373 50.5698C43.7195 51.1879 42.8817 51.5358 42.0078 51.5372Z" fill="#1D376C"/>
<path d="M53.9786 60.0005H48.952C48.7823 60.0005 48.6195 60.0679 48.4995 60.1879C48.3794 60.308 48.312 60.4707 48.312 60.6405C48.312 60.8102 48.3794 60.973 48.4995 61.093C48.6195 61.2131 48.7823 61.2805 48.952 61.2805H53.9786C54.1483 61.2805 54.3111 61.2131 54.4311 61.093C54.5511 60.973 54.6186 60.8102 54.6186 60.6405C54.6186 60.4707 54.5511 60.308 54.4311 60.1879C54.3111 60.0679 54.1483 60.0005 53.9786 60.0005Z" fill="#1D376C"/>
<path d="M43.266 59.129L41.7953 60.5984L41.2283 60.0327C41.1692 59.9716 41.0986 59.9228 41.0205 59.8893C40.9425 59.8557 40.8585 59.8381 40.7735 59.8373C40.6885 59.8366 40.6042 59.8528 40.5256 59.885C40.4469 59.9171 40.3755 59.9647 40.3154 60.0248C40.2553 60.0848 40.2078 60.1563 40.1756 60.235C40.1434 60.3136 40.1272 60.3979 40.128 60.4829C40.1287 60.5678 40.1463 60.6518 40.1799 60.7299C40.2134 60.808 40.2622 60.8786 40.3233 60.9376L41.3473 61.9617C41.4673 62.0816 41.6301 62.149 41.7998 62.149C41.9695 62.149 42.1323 62.0816 42.2523 61.9617L44.1723 60.0417C44.2889 59.9209 44.3534 59.7593 44.3519 59.5915C44.3504 59.4237 44.2831 59.2631 44.1645 59.1445C44.0458 59.0258 43.8853 58.9585 43.7175 58.9571C43.5497 58.9556 43.388 59.0201 43.2673 59.1367L43.266 59.129Z" fill="#1D376C"/>
<path d="M42.0081 56.062C41.1025 56.0618 40.2171 56.3301 39.464 56.833C38.7109 57.336 38.1239 58.0509 37.7771 58.8875C37.4304 59.7241 37.3395 60.6448 37.516 61.533C37.6926 62.4213 38.1285 63.2372 38.7688 63.8777C39.4091 64.5181 40.2249 64.9543 41.1131 65.1311C42.0013 65.3078 42.9219 65.2172 43.7586 64.8707C44.5953 64.5242 45.3105 63.9374 45.8136 63.1844C46.3168 62.4314 46.5853 61.5462 46.5853 60.6406C46.5837 59.427 46.1009 58.2636 45.2429 57.4054C44.3849 56.5471 43.2216 56.064 42.0081 56.062ZM42.0081 63.9391C41.3556 63.9394 40.7177 63.7461 40.1751 63.3838C39.6325 63.0216 39.2095 62.5065 38.9597 61.9038C38.7098 61.3011 38.6443 60.6378 38.7714 59.9978C38.8986 59.3579 39.2126 58.77 39.6739 58.3086C40.1352 57.8471 40.7229 57.5329 41.3628 57.4055C42.0027 57.2781 42.666 57.3434 43.2688 57.593C43.8716 57.8426 44.3868 58.2654 44.7493 58.8079C45.1119 59.3503 45.3053 59.9881 45.3053 60.6406C45.304 61.5148 44.9562 62.3528 44.3382 62.9711C43.7201 63.5893 42.8823 63.9374 42.0081 63.9391Z" fill="#1D376C"/>
<path d="M66.4817 25.1998V46.9188L64.1085 49.2919V26.2519C64.1085 26.0822 64.0411 25.9194 63.9211 25.7994C63.8011 25.6794 63.6383 25.6119 63.4685 25.6119H58.2871C58.3487 25.3298 58.3805 25.0419 58.3818 24.7531V23.2798H64.5617C65.0709 23.2798 65.5592 23.4821 65.9193 23.8421C66.2794 24.2022 66.4817 24.6906 66.4817 25.1998Z" fill="#1D376C"/>
<path d="M61.1478 58.7719L59.5747 57.1975L60.5731 54.9268L63.4185 57.7735L61.1478 58.7719Z" fill="#FABF80"/>
<path d="M59.0231 58.4546L59.8909 59.325L58.3408 60.006L59.0231 58.4546Z" fill="#1D376C"/>
<path d="M57.1018 24.7518C57.1008 25.4951 56.8047 26.2077 56.2785 26.7328C55.7524 27.258 55.0394 27.5528 54.296 27.5524H44.4605C43.7181 27.5514 43.0065 27.256 42.4817 26.7309C41.9569 26.2059 41.6618 25.4941 41.6611 24.7518V23.2798H57.1018V24.7518Z" fill="#F59323"/>
<path d="M78.8005 36.4104L61.334 53.877L64.4683 57.0113L81.9349 39.5447L78.8005 36.4104Z" fill="#F59323"/>
</svg>
