<svg width="91" height="91" viewBox="0 0 91 91" fill="none" xmlns="http://www.w3.org/2000/svg">
<g clip-path="url(#clip0_86_915)">
<path d="M45.12 90.24C70.0391 90.24 90.24 70.0391 90.24 45.12C90.24 20.2009 70.0391 0 45.12 0C20.2009 0 0 20.2009 0 45.12C0 70.0391 20.2009 90.24 45.12 90.24Z" fill="#FABF80"/>
<path d="M65.0173 71.2686V74.5371C65.0173 75.8161 63.9514 76.8819 62.6724 76.8819H21.9579C20.6789 76.8819 19.613 75.8161 19.613 74.5371V21.3168C19.613 20.0378 20.6789 18.972 21.9579 18.972H25.2264V68.9238C25.2264 70.2028 26.2922 71.2686 27.5712 71.2686H65.0173Z" fill="#E6E9EE"/>
<path d="M59.8304 13.3587H27.5003C26.2213 13.3587 25.1555 14.4245 25.1555 15.7035V68.9238C25.1555 70.2028 26.2213 71.2686 27.5003 71.2686H68.286C69.565 71.2686 70.6308 70.2028 70.6308 68.9238V24.1591H62.1752C60.8962 24.1591 59.8304 23.0932 59.8304 21.8142V13.3587Z" fill="white"/>
<path d="M59.8303 13.3586V21.8142C59.8303 23.0932 60.8962 24.159 62.1751 24.159H70.6307L59.8303 13.3586Z" fill="#E6E9EE"/>
<path d="M66.9359 57.3418H28.8503V59.4734H66.9359V57.3418Z" fill="#E6E9EE"/>
<path d="M50.309 62.7419H28.8503V64.8736H50.309V62.7419Z" fill="#E6E9EE"/>
<path d="M53.6486 36.8779C53.6486 33.7515 51.0906 31.1935 47.9642 31.1935C46.7563 31.1935 45.6904 30.1987 45.6904 28.9197C45.6904 27.7118 46.6852 26.6459 47.9642 26.6459C48.6037 26.6459 49.1721 26.9302 49.5985 27.3565C50.238 28.0671 51.3748 28.0671 52.0143 27.4276C52.7249 26.7881 52.7249 25.6512 52.0854 25.0117C51.4459 24.3011 50.5932 23.8037 49.6695 23.5195V22.5248C49.6695 21.601 48.8879 20.8194 47.9642 20.8194C47.0405 20.8194 46.2589 21.601 46.2589 22.5248V23.5195C43.9851 24.2301 42.2798 26.4328 42.2798 28.9197C42.2798 32.0461 44.8378 34.6041 47.9642 34.6041C49.1721 34.6041 50.238 35.5989 50.238 36.8779C50.238 38.0858 49.2432 39.1517 47.9642 39.1517C47.3247 39.1517 46.7563 38.8674 46.3299 38.4411C45.6904 37.7305 44.5535 37.7305 43.9141 38.37C43.2035 39.0095 43.2035 40.1464 43.843 40.7859C44.4825 41.4965 45.3352 41.9939 46.2589 42.2781V43.2729C46.2589 44.1966 47.0405 44.9782 47.9642 44.9782C48.8879 44.9782 49.6695 44.1966 49.6695 43.2729V42.2781C51.9433 41.6386 53.6486 39.4359 53.6486 36.8779Z" fill="#4CDBC4"/>
<path d="M66.9359 51.8705H28.8503V54.0022H66.9359V51.8705Z" fill="#E6E9EE"/>
</g>
<defs>
<clipPath id="clip0_86_915">
<rect width="90.24" height="90.24" fill="white"/>
</clipPath>
</defs>
</svg>
