<svg width="91" height="91" viewBox="0 0 91 91" fill="none" xmlns="http://www.w3.org/2000/svg">
<g clip-path="url(#clip0_86_977)">
<path d="M45.12 90.24C70.0391 90.24 90.24 70.0391 90.24 45.12C90.24 20.2009 70.0391 0 45.12 0C20.2009 0 0 20.2009 0 45.12C0 70.0391 20.2009 90.24 45.12 90.24Z" fill="#1D376C"/>
<path d="M50.7994 64.776H46.871V61.0347H48.3675C49.4006 61.0347 50.2382 60.2118 50.2382 59.1787C50.2382 59.0838 50.2288 58.9147 50.2152 58.9147H39.7853C39.7717 58.9147 39.7623 59.0838 39.7623 59.1787C39.7623 60.2118 40.5998 61.0347 41.633 61.0347H43.1295V64.776H39.2011C35.9348 64.776 33.2773 67.4335 33.2773 70.6998V74.1293C33.2773 75.1624 34.1149 76 35.148 76C36.1812 76 37.0187 75.1625 37.0187 74.1293V70.6998C37.0187 69.4965 37.9978 68.5173 39.2012 68.5173H43.1296V72.1339C43.1296 73.167 43.9671 74.0046 45.0003 74.0046C46.0335 74.0046 46.871 73.1671 46.871 72.1339V68.5173H50.7994C52.0027 68.5173 52.9819 69.4964 52.9819 70.6998V74.1293C52.9819 75.1624 53.8194 76 54.8526 76C55.8857 76 56.7233 75.1625 56.7233 74.1293V70.6998C56.7232 67.4334 54.0657 64.776 50.7994 64.776Z" fill="#F59323"/>
<path d="M29.7459 50.4083L27.8833 38.9098C27.7361 38.0046 26.9612 37.3395 26.044 37.3395H22.4273C21.3943 37.3395 20.5566 38.177 20.5566 39.2102C20.5566 40.2432 21.3942 41.0809 22.4273 41.0809H24.4529L26.0388 51.0089C26.3698 53.0443 27.6651 54.7164 29.2864 55.64V53.1814C29.2864 52.3784 29.5226 51.6234 29.8865 50.9661C29.8172 50.7891 29.7776 50.6033 29.7459 50.4083Z" fill="#F59323"/>
<path d="M67.5729 37.3395H63.9563C63.039 37.3395 62.2571 38.0046 62.1099 38.91L60.2402 50.4085C60.2086 50.6034 60.1831 50.7892 60.1138 50.9664C60.4776 51.6236 60.7139 52.3786 60.7139 53.1815V55.6401C62.3352 54.7165 63.6305 53.0444 63.9615 51.009L65.5474 41.081H67.5729C68.606 41.081 69.4436 40.2435 69.4436 39.2103C69.4436 38.177 68.606 37.3395 67.5729 37.3395Z" fill="#F59323"/>
<path d="M55.2347 23.1609C54.5406 22.4075 53.5939 22 52.5694 22H37.4304C36.4059 22 35.4592 22.4075 34.7649 23.1609C34.0705 23.9143 33.7342 24.8843 33.8177 25.9054L35.6724 48.5635H54.327L56.1819 25.9055C56.2655 24.8844 55.9291 23.9144 55.2347 23.1609Z" fill="#F59323"/>
<path d="M56.0687 51.0577H33.9315C32.7768 51.0577 31.7808 52.0268 31.7808 53.1814V56.4203H58.2196V53.1814C58.2195 52.0268 57.2234 51.0577 56.0687 51.0577Z" fill="#F59323"/>
</g>
<defs>
<clipPath id="clip0_86_977">
<rect width="90.24" height="90.24" fill="white"/>
</clipPath>
</defs>
</svg>
